<svg viewBox="0 0 500 500" xml:space="preserve" xmlns="http://www.w3.org/2000/svg"><path clip-rule="evenodd" d="M213.658 113.468c-26.076-25.532-86.863-35.796-121.109.909C59.028 150.173 31.95 236.485 31.95 317.892c0 98.216 82.319 111.845 127.195 63.599 25.98-27.984 28.438-32.353 45.429-54.513h90.853c17.079 22.16 19.44 26.528 45.426 54.513 44.881 48.246 127.198 34.617 127.198-63.599 0-81.406-27.079-167.719-60.599-203.515-34.247-36.706-94.946-26.441-121.111-.909C276.253 123.28 250 127.095 250 127.095s-26.264-3.815-36.342-13.627zm-36.341 59.963v26.349h26.351c10.54 0 19.076 8.174 19.076 18.17 0 9.995-8.536 18.17-19.076 18.17h-26.351v26.35c0 10.541-8.181 19.077-18.172 19.077-9.99 0-18.17-8.536-18.17-19.077v-26.35h-26.351c-10.542 0-19.075-8.175-19.075-18.17 0-9.996 8.534-18.17 19.075-18.17h26.351v-26.349c0-10.54 8.18-19.08 18.17-19.08 9.991 0 18.172 8.54 18.172 19.08zm163.536 12.719c0-12.536 10.18-22.713 22.717-22.713 12.535 0 22.715 10.177 22.715 22.713s-10.18 22.713-22.715 22.713c-12.538 0-22.717-10.176-22.717-22.713zm-45.426 54.513c0-12.536 10.179-22.713 22.715-22.713 12.537 0 22.711 10.177 22.711 22.713s-10.174 22.716-22.711 22.716c-12.537 0-22.715-10.18-22.715-22.716z" fill="#fcb900" fill-rule="evenodd" class="fill-010101"></path></svg>